<?xml version="1.0"?>
<svg width="100" height="100" xmlns="http://www.w3.org/2000/svg" xmlns:svg="http://www.w3.org/2000/svg">
 <g class="layer">
  <title>Layer 1</title>
  <rect fill="#ffffff" height="100%" id="svg_0" width="100%"/>
  <g id="svg_1">
   <path d="m25.163,40.775c-2.097,-2.726 -5.753,-5.386 -2.558,-8.024c3.195,-2.64 16.808,-13.057 20.697,-16.113c3.889,-3.056 3.334,-6.944 3.056,-8.612c-0.278,-1.667 5.139,0.557 6.806,4.168c1.667,3.611 5.973,3.473 8.613,3.473c2.639,0 15.418,4.861 14.307,42.228c-6.806,-2.223 -12.779,8.196 -12.779,8.196l-23.198,0l-7.64,-11.251c0,0 18.752,-10.559 19.03,-19.448c-7.64,7.084 -9.445,4.306 -13.474,4.306c-4.028,-0.002 -8.265,7.047 -12.86,1.077z" id="svg_2"/>
  </g>
  <g id="svg_3">
   <path d="m71.51,75.062c0,1.1 -0.9,2 -2,2l-37.162,0c-1.1,0 -2,-0.9 -2,-2l0,-6c0,-1.1 0.9,-2 2,-2l37.162,0c1.1,0 2,0.9 2,2l0,6z" id="svg_4"/>
  </g>
  <g id="svg_5">
   <path d="m74.179,81.075c0,1.1 -0.9,2 -2,2l-42.335,0c-1.1,0 -2,-0.9 -2,-2l0,-1c0,-1.1 0.9,-2 2,-2l42.335,0c1.1,0 2,0.9 2,2l0,1z" id="svg_6"/>
  </g>
  <g id="svg_7">
   <path d="m76.152,87.01c0,1.1 -0.9,2 -2,2l-46.28,0c-1.1,0 -2,-0.9 -2,-2l0,-0.999c0,-1.1 0.9,-2 2,-2l46.281,0c1.1,0 2,0.9 2,2l0,0.999l-0.001,0z" id="svg_8"/>
  </g>
 </g>
</svg>